# xmcd
#
# Track frame offsets: 
#        150
#        18620
#        32394
#
# Disc length: 618 seconds
#
# Revision: 0
# Processed by: cddbd v1.5.2PL0 Copyright (c) Steve Scherf et al.
# Submitted via: ExactAudioCopy v0.95b3
#
DISCID=18026803
DTITLE=South - A Place In Displacement
DYEAR=2006
DGENRE=Rock
TTITLE0=A Place In Displacement
TTITLE1=Fight Your Cause
TTITLE2=Addiction To Fiction
EXTD=
EXTT0=
EXTT1=
EXTT2=
PLAYORDER=
